<svg xmlns="http://www.w3.org/2000/svg" viewBox="0 0 40 40"><defs><style>.a{fill:none;}.a,.b{stroke:#f3c;stroke-miterlimit:10;}.b{fill:#f3c;}</style></defs><path class="a" d="M20,38.85A18.85,18.85,0,1,1,38.85,20,18.85,18.85,0,0,1,20,38.85Z"/><path class="b" d="M27.86,10.65c.65-.68,2.27.69,2.27.69A13.45,13.45,0,0,1,33,19.63,13.12,13.12,0,0,1,20,32.94,13.12,13.12,0,0,1,7.06,19.63,13.51,13.51,0,0,1,10,11.23s1.42-1.25,2.14-.58A1.88,1.88,0,0,1,12.21,13a10.58,10.58,0,0,0-2.28,6.61A10.26,10.26,0,0,0,20,30.07,10.26,10.26,0,0,0,30.07,19.63a10.6,10.6,0,0,0-2.22-6.53A2.05,2.05,0,0,1,27.86,10.65Z"/><path class="b" d="M18.56,8.49a1.44,1.44,0,0,1,2.88,0V18.57a1.44,1.44,0,0,1-2.88,0Z"/></svg>