<svg xmlns="http://www.w3.org/2000/svg" viewBox="0 0 40 40"><defs><style>.a{fill:none;}.a,.b{stroke:#f3c;}.b{fill:#f3c;stroke-miterlimit:10;}</style></defs><path class="a" d="M22.8,2A12.8,12.8,0,0,0,10,14.81,20.72,20.72,0,0,0,30.71,35.52"/><path class="a" d="M30.71,9.92A7.91,7.91,0,0,0,22.8,2"/><path class="a" d="M30.71,9.92a4.89,4.89,0,0,1-4.89,4.89"/><path class="a" d="M22.8,11.78a3,3,0,0,0,3,3h0"/><path class="a" d="M22.8,11.78a1.86,1.86,0,0,1,1.86-1.86h0"/><path class="a" d="M25.82,11.08a1.16,1.16,0,0,0-1.16-1.16h0"/><path class="a" d="M25.82,11.08a.7.7,0,0,1-.7.7h0"/><path class="a" d="M25.12,11.08v.7"/><path class="a" d="M25.12,11.32h-.46"/><path class="a" d="M24.89,11.32v-.24"/><path class="a" d="M24.66,11.32a.47.47,0,0,0,.46.46"/><path class="a" d="M24.66,11.32a.23.23,0,0,1,.23-.24"/><path class="a" d="M25.12,11.32a.23.23,0,0,0-.23-.24h0"/><circle class="a" cx="20" cy="20" r="18.85"/><path class="b" d="M10,35.63a17.78,17.78,0,0,1,4.12,2,5.51,5.51,0,0,0,2.33.63,5.63,5.63,0,0,1,2.12.08c2.66.86,4.72-.72,7.52-1.2,1-.18,3-.14,2.84-1.16a16.53,16.53,0,0,1-8.07-2c-.81-.43-1.33-.63-2.15-1.06A1.76,1.76,0,0,1,18,32c-.09-.23-1.36-.93-1.57-1.21-.54-.75-.28-.61-1.07-1.1a4.22,4.22,0,0,1-1.28-1.58,95.39,95.39,0,0,1-4.38-8.76,5.86,5.86,0,0,1-.36-1,6.43,6.43,0,0,1,.19-3c.33-1.48.29-3,.62-4.48a8.78,8.78,0,0,1,1-1.88c.25-.5.06-.89.41-1.33a25.59,25.59,0,0,1,2.29-2.37,20.68,20.68,0,0,1,4-2.66,10.22,10.22,0,0,1,1.26-.38c.18-.07,1.22-.16,1.28-.24.36-.48-1.61-.54-1.85-.55a14.08,14.08,0,0,0-5.1,1,13.7,13.7,0,0,0-2.66,1.24A24.69,24.69,0,0,0,5.9,7.68c-.5.52-.6,1.56-1,2.17A10.94,10.94,0,0,0,3.7,11.68a27,27,0,0,0-2.12,7.77,10.51,10.51,0,0,0,1,5.95c0,.07-.41.25-.38.33s.58.77.59.93C2.87,28.41,6.2,31.1,4.87,30c-2.36-2-.1.46.94,1.51a3.86,3.86,0,0,1,.58,1"/></svg>